<svg xmlns="http://www.w3.org/2000/svg" width="14" height="18.22" viewBox="0 0 14 18.22"><defs><style>.a{fill:#6b2237;}</style></defs><path class="a" d="M48.592,17.482a.74.74,0,0,0,.738.738H61.854a.74.74,0,0,0,.738-.738c0-4.084-1.845-7.591-4.441-8.993a4.632,4.632,0,1,0-5.105,0C50.437,9.891,48.592,13.4,48.592,17.482Zm7-16.005a3.149,3.149,0,1,1-3.149,3.149A3.155,3.155,0,0,1,55.592,1.476Zm0,7.812c2.879,0,5.241,3.285,5.5,7.455h-11C50.351,12.573,52.713,9.288,55.592,9.288Z" transform="translate(-48.592)"/></svg>